name D:\school\WTK\thesis\model\3dpredictsim\Results\MidTarsalJoint\Fal_s1_bCst_PF_Cheng2008_ls150_MT_k300_MTP_T5_ig23.mot
datacolumns 128
datarows 4
range 1.72160714 1.75603928
endheader
time	pelvis_tilt	pelvis_list	pelvis_rotation	pelvis_tx	pelvis_ty	pelvis_tz	hip_flexion_l	hip_adduction_l	hip_rotation_l	hip_flexion_r	hip_adduction_r	hip_rotation_r	knee_angle_l	knee_angle_r	ankle_angle_l	ankle_angle_r	subtalar_angle_l	subtalar_angle_r	mtj_angle_l	mtj_angle_r	mtp_angle_l	mtp_angle_r	lumbar_extension	lumbar_bending	lumbar_rotation	arm_flex_l	arm_add_l	arm_rot_l	arm_flex_r	arm_add_r	arm_rot_r	elbow_flex_l	elbow_flex_r	pro_sup_l	pro_sup_r	glut_med1_l/activation	glut_med2_l/activation	glut_med3_l/activation	glut_min1_l/activation	glut_min2_l/activation	glut_min3_l/activation	semimem_l/activation	semiten_l/activation	bifemlh_l/activation	bifemsh_l/activation	sar_l/activation	add_long_l/activation	add_brev_l/activation	add_mag1_l/activation	add_mag2_l/activation	add_mag3_l/activation	tfl_l/activation	pect_l/activation	grac_l/activation	glut_max1_l/activation	glut_max2_l/activation	glut_max3_l/activation	iliacus_l/activation	psoas_l/activation	quad_fem_l/activation	gem_l/activation	peri_l/activation	rect_fem_l/activation	vas_med_l/activation	vas_int_l/activation	vas_lat_l/activation	med_gas_l/activation	lat_gas_l/activation	soleus_l/activation	tib_post_l/activation	flex_dig_l/activation	flex_hal_l/activation	tib_ant_l/activation	per_brev_l/activation	per_long_l/activation	per_tert_l/activation	ext_dig_l/activation	ext_hal_l/activation	ercspn_l/activation	intobl_l/activation	extobl_l/activation	glut_med1_r/activation	glut_med2_r/activation	glut_med3_r/activation	glut_min1_r/activation	glut_min2_r/activation	glut_min3_r/activation	semimem_r/activation	semiten_r/activation	bifemlh_r/activation	bifemsh_r/activation	sar_r/activation	add_long_r/activation	add_brev_r/activation	add_mag1_r/activation	add_mag2_r/activation	add_mag3_r/activation	tfl_r/activation	pect_r/activation	grac_r/activation	glut_max1_r/activation	glut_max2_r/activation	glut_max3_r/activation	iliacus_r/activation	psoas_r/activation	quad_fem_r/activation	gem_r/activation	peri_r/activation	rect_fem_r/activation	vas_med_r/activation	vas_int_r/activation	vas_lat_r/activation	med_gas_r/activation	lat_gas_r/activation	soleus_r/activation	tib_post_r/activation	flex_dig_r/activation	flex_hal_r/activation	tib_ant_r/activation	per_brev_r/activation	per_long_r/activation	per_tert_r/activation	ext_dig_r/activation	ext_hal_r/activation	ercspn_r/activation	intobl_r/activation	extobl_r/activation	
          1.72160714	         -2.93017651	          2.16002456	         -5.80795914	          2.15200893	          0.91950874	          0.00206469	         29.22955284	          3.34882581	         -2.57792861	        -16.55507817	         -1.38333908	          7.13537077	        -11.13557140	         -9.31801114	          5.40573477	         -3.23796568	         -3.34666523	         11.68364451	         -0.15622300	          4.59251913	         -1.05843168	         14.37418715	         -1.99524545	         -0.42639125	          2.10552971	         -4.77392850	        -13.45262524	          8.33725756	          5.11353445	        -13.45917480	         17.23030382	         15.09492605	         35.37665257	         86.51662706	         86.51662706	          0.05956447	          0.05956447	          0.05000003	          0.05956449	          0.05956448	          0.05956389	          0.15754472	          0.07221283	          0.19689802	          0.05516871	          0.05000004	          0.16508590	          0.32977813	          0.10627396	          0.20374112	          0.10653464	          0.05000003	          0.06761146	          0.13732041	          0.05000014	          0.05000014	          0.13616314	          0.05956452	          0.05000100	          0.32081280	          0.29132868	          0.13053770	          0.05000034	          0.12745243	          0.12547605	          0.11335658	          0.06541936	          0.06807632	          0.06323743	          0.05000000	          0.05956479	          0.05000007	          0.50635606	          0.25537862	          0.15924526	          0.16386911	          0.46578719	          0.23297127	          0.05438575	          0.11271719	          0.09652424	          0.23268592	          0.10070607	          0.07367266	          0.27317257	          0.19882797	          0.11499932	          0.05000023	          0.05000004	          0.05000002	          0.05211648	          0.11007304	          0.10050319	          0.07877969	          0.05000035	          0.05000051	          0.05000015	          0.31054187	          0.10887875	          0.05000039	          0.05000035	          0.05000020	          0.05000019	          0.39248729	          0.60124773	          0.05000006	          0.05000016	          0.05000100	          0.26201371	          0.05001252	          0.05000459	          0.06896554	          0.25680989	          0.35146982	          0.31083041	          0.24190880	          0.22061908	          0.29619391	          0.05000000	          0.05956449	          0.13929350	          0.05000002	          0.05000000	          0.05000003	          0.05000000	          0.05000004	          0.06790111	
          1.73308452	         -2.92780227	          2.24527249	         -6.07544067	          2.16952907	          0.91859999	          0.00187293	         28.54033093	          3.74410684	         -2.34179856	        -16.43255483	         -1.68371429	          6.93847506	        -11.44761083	        -11.19858829	          4.70057892	         -3.85041302	         -3.71080645	         12.65811010	         -0.22137317	          3.52509931	         -1.06061304	         16.15232820	         -1.78496077	         -0.62476191	          2.17979469	         -5.71086650	        -13.44986864	          8.08443755	          4.75391403	        -13.47389725	         17.48241343	         14.76749393	         36.60535534	         86.51662706	         86.51662706	          0.05000000	          0.05000000	          0.11861016	          0.05000001	          0.05000001	          0.05000001	          0.13224724	          0.06061738	          0.16528141	          0.05000003	          0.05956494	          0.13857749	          0.31515058	          0.35802799	          0.23034436	          0.10834462	          0.05000008	          0.07452737	          0.15696068	          0.06690683	          0.08343108	          0.13243878	          0.05000006	          0.05956453	          0.56375639	          0.24454899	          0.10957680	          0.05956456	          0.14505354	          0.14711241	          0.12527260	          0.06338813	          0.06995786	          0.05867656	          0.05845526	          0.05000033	          0.05746913	          0.51121080	          0.31826770	          0.20133116	          0.13755608	          0.43617819	          0.19556225	          0.05000000	          0.09461778	          0.08102499	          0.19532271	          0.08453534	          0.06184280	          0.22930829	          0.16690146	          0.09653348	          0.05000075	          0.05000025	          0.05000049	          0.05000002	          0.09239826	          0.19814499	          0.06613015	          0.07349349	          0.05956477	          0.05956458	          0.26067707	          0.09141089	          0.05956484	          0.05000286	          0.05003677	          0.05956456	          0.32946421	          0.55893690	          0.06088981	          0.05956655	          0.05956462	          0.21994123	          0.13787507	          0.14704735	          0.12702109	          0.21557300	          0.29503305	          0.26091925	          0.20306465	          0.18519353	          0.24863303	          0.05000000	          0.05000004	          0.15130928	          0.05000003	          0.05000001	          0.05000004	          0.06524685	          0.07095854	          0.06859381	
          1.74456190	         -2.92064611	          2.33627232	         -6.30965184	          2.18735498	          0.91766584	          0.00170644	         27.70593682	          4.02721574	         -2.07412767	        -16.25220194	         -1.98056838	          6.72907656	        -11.88510753	        -13.16474301	          4.16220285	         -4.57747850	         -4.09657748	         13.55809413	         -0.31038844	          2.30663215	         -1.03720414	         17.90945723	         -1.55347354	         -0.83555336	          2.24230626	         -6.67149677	        -13.45739966	          7.89420571	          4.30688042	        -13.48751164	         17.64331547	         14.48382847	         37.83397595	         86.51662706	         86.51662706	          0.25611439	          0.26630631	          0.33383108	          0.43544161	          0.25865595	          0.23149884	          0.11573248	          0.06354483	          0.13892942	          0.06878569	          0.05000048	          0.11632561	          0.26454573	          0.30053817	          0.19335720	          0.12656684	          0.05000007	          0.06256042	          0.13175705	          0.14588798	          0.07003434	          0.11117276	          0.05000043	          0.05000009	          0.47323200	          0.20528090	          0.22891108	          0.05000008	          0.12176181	          0.12349008	          0.10515716	          0.05320969	          0.05872450	          0.05000004	          0.05000001	          0.05000007	          0.05000009	          0.56572019	          0.31654669	          0.16900272	          0.38833972	          0.50649419	          0.16929780	          0.06655300	          0.11407503	          0.06801452	          0.32146623	          0.07096121	          0.05191251	          0.31257700	          0.14010156	          0.08103277	          0.05000033	          0.05000003	          0.05000002	          0.05000020	          0.08453165	          0.16632814	          0.05551142	          0.06169239	          0.05000030	          0.05000011	          0.24964503	          0.07673287	          0.05000045	          0.05000050	          0.05000021	          0.05000015	          0.27656098	          0.52564103	          0.05111253	          0.05000180	          0.05000019	          0.18462448	          0.11573599	          0.12343544	          0.10662487	          0.18095767	          0.24765853	          0.21902251	          0.17045784	          0.15545636	          0.20870915	          0.06691449	          0.10961708	          0.16672117	          0.05000008	          0.10299262	          0.05000027	          0.05992465	          0.05956447	          0.05757946	
          1.75603928	         -2.91096176	          2.42215389	         -6.50622252	          2.20524361	          0.91674801	          0.00151471	         26.82553166	          4.28238101	         -1.80504171	        -15.97043078	         -2.26214608	          6.53362714	        -12.29353291	        -15.27195215	          3.75923946	         -5.41904787	         -4.48784357	         14.39191516	         -0.27892378	          1.02368879	         -1.01792227	         19.47185943	         -1.32648942	         -1.04679263	          2.29386717	         -7.60386389	        -13.46684999	          7.77027594	          3.81650439	        -13.50845618	         17.74340729	         14.21669190	         39.03658239	         86.51662706	         86.51662706	          0.36379280	          0.36450102	          0.38262569	          0.36552123	          0.21712293	          0.23221871	          0.10212692	          0.09376639	          0.11831077	          0.05774063	          0.05000013	          0.09764680	          0.22206668	          0.25227973	          0.16231318	          0.16150888	          0.05000006	          0.05251498	          0.11060045	          0.23640427	          0.17341428	          0.15401476	          0.05000001	          0.05000001	          0.39724344	          0.17231822	          0.19215409	          0.05000001	          0.14800522	          0.15817493	          0.11922535	          0.05000000	          0.05000001	          0.05000000	          0.05000000	          0.05000002	          0.05000002	          0.63486377	          0.28161019	          0.14810636	          0.56537923	          0.54655485	          0.30323006	          0.08068332	          0.09575759	          0.05709319	          0.26984727	          0.05956672	          0.05000002	          0.26238541	          0.11760496	          0.06802106	          0.05000025	          0.05000002	          0.05000003	          0.05000001	          0.07095814	          0.14832675	          0.15323436	          0.05178653	          0.05000573	          0.09436588	          0.20955867	          0.06441195	          0.05000011	          0.05000073	          0.05000055	          0.05000050	          0.23215259	          0.46658090	          0.05000005	          0.05000018	          0.05000003	          0.15497866	          0.11777494	          0.10868894	          0.09913154	          0.15190064	          0.20789111	          0.18385327	          0.14308682	          0.13049420	          0.17519599	          0.13438133	          0.14645706	          0.16049003	          0.05000205	          0.17072456	          0.10497578	          0.08347489	          0.05000000	          0.05000000	
